<svg width="26" height="27" viewBox="0 0 26 27" fill="none" xmlns="http://www.w3.org/2000/svg">
<g clip-path="url(#clip0_1323_2138)">
<path d="M18.1706 0.0330309C18.1154 -0.0287191 16.1248 0.057406 14.3925 1.93753C12.6603 3.81603 12.9268 5.97078 12.9658 6.02603C13.0048 6.08128 15.4358 6.16741 16.9876 3.98178C18.5395 1.79616 18.2259 0.0964059 18.1706 0.0330309ZM23.5559 19.0992C23.4779 18.9432 19.7778 17.0939 20.1223 13.5384C20.4668 9.98128 22.8441 9.00628 22.8815 8.90066C22.9189 8.79503 21.9114 7.61691 20.8438 7.02053C20.0599 6.60007 19.1923 6.35917 18.3039 6.31528C18.1284 6.31041 17.519 6.16091 16.2661 6.50378C15.4406 6.72966 13.58 7.46091 13.0681 7.49016C12.5546 7.51941 11.0271 6.64191 9.38425 6.40953C8.33288 6.20641 7.21813 6.62241 6.42025 6.94253C5.624 7.26103 4.1095 8.16778 3.05 10.5777C1.9905 12.9859 2.54463 16.8014 2.94113 17.9877C3.33763 19.1723 3.95675 21.1142 5.00975 22.5312C5.94575 24.1302 7.18725 25.24 7.70563 25.617C8.224 25.994 9.6865 26.2443 10.7005 25.7259C11.5163 25.2254 12.9885 24.9378 13.5703 24.9589C14.1504 24.98 15.2944 25.2092 16.466 25.8348C17.3939 26.1549 18.2714 26.0217 19.1505 25.6642C20.0296 25.305 21.302 23.9433 22.7873 21.1824C23.3511 19.8987 23.6079 19.2048 23.5559 19.0992Z" fill="black"/>
<path d="M18.1706 0.0330309C18.1154 -0.0287191 16.1248 0.057406 14.3925 1.93753C12.6603 3.81603 12.9268 5.97078 12.9658 6.02603C13.0048 6.08128 15.4358 6.16741 16.9876 3.98178C18.5395 1.79616 18.2259 0.0964059 18.1706 0.0330309ZM23.5559 19.0992C23.4779 18.9432 19.7778 17.0939 20.1223 13.5384C20.4668 9.98128 22.8441 9.00628 22.8815 8.90066C22.9189 8.79503 21.9114 7.61691 20.8438 7.02053C20.0599 6.60007 19.1923 6.35917 18.3039 6.31528C18.1284 6.31041 17.519 6.16091 16.2661 6.50378C15.4406 6.72966 13.58 7.46091 13.0681 7.49016C12.5546 7.51941 11.0271 6.64191 9.38425 6.40953C8.33288 6.20641 7.21813 6.62241 6.42025 6.94253C5.624 7.26103 4.1095 8.16778 3.05 10.5777C1.9905 12.9859 2.54463 16.8014 2.94113 17.9877C3.33763 19.1723 3.95675 21.1142 5.00975 22.5312C5.94575 24.1302 7.18725 25.24 7.70563 25.617C8.224 25.994 9.6865 26.2443 10.7005 25.7259C11.5163 25.2254 12.9885 24.9378 13.5703 24.9589C14.1504 24.98 15.2944 25.2092 16.466 25.8348C17.3939 26.1549 18.2714 26.0217 19.1505 25.6642C20.0296 25.305 21.302 23.9433 22.7873 21.1824C23.3511 19.8987 23.6079 19.2048 23.5559 19.0992Z" fill="black"/>
</g>
<defs>
<clipPath id="clip0_1323_2138">
<rect width="26" height="26" fill="white" transform="translate(0 0.0200195)"/>
</clipPath>
</defs>
</svg>
