<svg width="26" height="27" viewBox="0 0 26 27" fill="none" xmlns="http://www.w3.org/2000/svg">
<path d="M13.2656 10.6768V15.7113H20.4048C20.0913 17.3304 19.1505 18.7014 17.7396 19.6232L22.0448 22.8969C24.5532 20.6279 26.0003 17.2951 26.0003 13.336C26.0003 12.4142 25.9159 11.5277 25.7591 10.6769L13.2656 10.6768Z" fill="#4285F4"/>
<path d="M5.82986 15.5151L4.85887 16.2436L1.42188 18.8672C3.60463 23.1099 8.07835 26.0408 13.2639 26.0408C16.8454 26.0408 19.8482 24.8826 22.0431 22.8972L17.7379 19.6235C16.556 20.4035 15.0486 20.8763 13.2639 20.8763C9.81488 20.8763 6.88453 18.5954 5.83528 15.5226L5.82986 15.5151Z" fill="#34A853"/>
<path d="M1.42291 7.21436C0.518502 8.96338 0 10.9371 0 13.0407C0 15.1443 0.518502 17.118 1.42291 18.867C1.42291 18.8787 5.83674 15.5106 5.83674 15.5106C5.57143 14.7306 5.41462 13.9034 5.41462 13.0405C5.41462 12.1777 5.57143 11.3505 5.83674 10.5705L1.42291 7.21436Z" fill="#FBBC05"/>
<path d="M13.2641 5.21692C15.2178 5.21692 16.9543 5.87872 18.3412 7.15511L22.1398 3.43241C19.8365 1.3288 16.8458 0.0405273 13.2641 0.0405273C8.07862 0.0405273 3.60463 2.95963 1.42188 7.21421L5.83557 10.5706C6.88468 7.49782 9.81516 5.21692 13.2641 5.21692Z" fill="#EA4335"/>
</svg>
