<svg width="212" height="213" viewBox="0 0 212 213" fill="none" xmlns="http://www.w3.org/2000/svg">
<path d="M92.7495 113.316L79.3331 99.8879L79.3324 99.8871C78.4843 99.039 77.4774 98.3662 76.3693 97.9072C75.2612 97.4482 74.0735 97.212 72.8741 97.212C71.6747 97.212 70.487 97.4482 69.3789 97.9072C68.2708 98.3662 67.2639 99.039 66.4158 99.8871C65.5677 100.735 64.895 101.742 64.436 102.85C63.977 103.958 63.7407 105.146 63.7407 106.345C63.7407 107.545 63.977 108.732 64.436 109.841C64.895 110.949 65.5677 111.956 66.4158 112.804L86.2886 132.676C86.2893 132.677 86.2901 132.678 86.2908 132.679L92.7495 113.316ZM92.7495 113.316L126.04 80.0124L126.041 80.0121C127.754 78.2993 130.077 77.337 132.499 77.337C134.921 77.337 137.245 78.2993 138.957 80.0121C140.67 81.7249 141.632 84.048 141.632 86.4704C141.632 88.8927 140.67 91.2158 138.957 92.9286L99.2096 132.676C99.2089 132.677 99.2081 132.678 99.2074 132.679L92.7495 113.316ZM70.339 22.8262L71.4113 22.8394L72.1599 22.0715L80.3994 13.6201C80.3996 13.6199 80.3997 13.6198 80.3999 13.6196C83.7334 10.2083 87.7152 7.49764 92.1112 5.64695C96.5074 3.79618 101.229 2.84277 105.999 2.84277C110.769 2.84277 115.491 3.79618 119.887 5.64695C124.283 7.49761 128.265 10.2082 131.598 13.6194C131.598 13.6197 131.599 13.6199 131.599 13.6201L139.84 22.0597L140.587 22.825L141.656 22.813L153.449 22.6805L153.45 22.6804C158.222 22.624 162.956 23.5221 167.375 25.322C171.794 27.1219 175.809 29.7873 179.183 33.1613C182.557 36.5354 185.223 40.55 187.022 44.9692C188.822 49.3879 189.72 54.1219 189.664 58.8927C189.664 58.8932 189.664 58.8936 189.664 58.894L189.518 70.6852L189.505 71.7564L190.272 72.5048L198.711 80.7457C198.711 80.7458 198.711 80.7458 198.711 80.7459C198.712 80.7461 198.712 80.7462 198.712 80.7463C202.123 84.0798 204.834 88.0615 206.684 92.4575C208.535 96.8537 209.488 101.575 209.488 106.345C209.488 111.115 208.535 115.837 206.684 120.233C204.833 124.629 202.123 128.611 198.711 131.945L198.71 131.946L190.283 140.187L189.52 140.934L189.532 142.003L189.664 153.795L189.664 153.797C189.721 158.568 188.822 163.302 187.022 167.722C185.223 172.141 182.557 176.155 179.183 179.529C175.809 182.903 171.794 185.569 167.375 187.369C162.957 189.168 158.223 190.067 153.452 190.01C153.451 190.01 153.451 190.01 153.45 190.01L141.659 189.865L140.588 189.851L139.84 190.618L131.599 199.057C131.599 199.057 131.599 199.058 131.599 199.058C131.598 199.058 131.598 199.058 131.598 199.058C128.265 202.469 124.283 205.18 119.887 207.031C115.491 208.881 110.769 209.835 105.999 209.835C101.229 209.835 96.5074 208.881 92.1112 207.031C87.715 205.18 83.7331 202.469 80.3994 199.057L80.3987 199.057L72.1572 190.63L71.4101 189.866L70.3418 189.878L58.5493 190.01L58.5478 190.01C53.7765 190.067 49.042 189.169 44.6229 187.369C40.2038 185.569 36.1891 182.903 32.8151 179.529C29.441 176.155 26.7756 172.141 24.9757 167.722C23.1758 163.302 22.2777 158.568 22.3342 153.797L22.4799 142.006L22.4932 140.934L21.7267 140.186L13.2871 131.945C13.2869 131.945 13.2867 131.945 13.2864 131.944C9.87519 128.611 7.1646 124.629 5.31394 120.233C3.46317 115.837 2.50977 111.115 2.50977 106.345C2.50977 101.575 3.46317 96.8537 5.31394 92.4575C7.16472 88.0613 9.87554 84.0793 13.2871 80.7457L13.2878 80.7449L21.7148 72.5034L22.4787 71.7564L22.4667 70.688L22.3342 58.8955L22.3342 58.894C22.2777 54.1227 23.1758 49.3883 24.9757 44.9692C26.7756 40.55 29.441 36.5354 32.8151 33.1613C36.1891 29.7873 40.2038 27.1219 44.6229 25.322C49.0416 23.5223 53.7756 22.6241 58.5465 22.6804C58.5469 22.6804 58.5473 22.6804 58.5478 22.6804L70.339 22.8262Z" fill="url(#paint0_linear_1404_3488)" stroke="black" stroke-width="5"/>
<defs>
<linearGradient id="paint0_linear_1404_3488" x1="105.999" y1="0.342773" x2="105.999" y2="212.335" gradientUnits="userSpaceOnUse">
<stop stop-color="#FFD12E"/>
<stop offset="1" stop-color="#FF7C1D"/>
</linearGradient>
</defs>
</svg>
