<svg width="21" height="21" viewBox="0 0 21 21" fill="none" xmlns="http://www.w3.org/2000/svg">
<g id="Component 5" clip-path="url(#clip0_160_2665)">
<path id="Vector" d="M8.625 3C8.45924 3 8.30027 3.06585 8.18306 3.18306C8.06585 3.30027 8 3.45924 8 3.625C8 3.79076 8.06585 3.94973 8.18306 4.06694C8.30027 4.18415 8.45924 4.25 8.625 4.25H12.375C12.5408 4.25 12.6997 4.18415 12.8169 4.06694C12.9342 3.94973 13 3.79076 13 3.625C13 3.45924 12.9342 3.30027 12.8169 3.18306C12.6997 3.06585 12.5408 3 12.375 3H8.625ZM14.25 10.5C14.25 11.4946 13.8549 12.4484 13.1517 13.1517C12.4484 13.8549 11.4946 14.25 10.5 14.25C9.50544 14.25 8.55161 13.8549 7.84835 13.1517C7.14509 12.4484 6.75 11.4946 6.75 10.5C6.75 9.50544 7.14509 8.55161 7.84835 7.84835C8.55161 7.14509 9.50544 6.75 10.5 6.75C11.4946 6.75 12.4484 7.14509 13.1517 7.84835C13.8549 8.55161 14.25 9.50544 14.25 10.5Z" fill="url(#paint0_linear_160_2665)"/>
<path id="Vector_2" d="M6.125 0.5C5.2962 0.5 4.50134 0.82924 3.91529 1.41529C3.32924 2.00134 3 2.7962 3 3.625V18C3 18.663 3.26339 19.2989 3.73223 19.7678C4.20107 20.2366 4.83696 20.5 5.5 20.5H15.5C16.163 20.5 16.7989 20.2366 17.2678 19.7678C17.7366 19.2989 18 18.663 18 18V3.625C18 2.7962 17.6708 2.00134 17.0847 1.41529C16.4987 0.82924 15.7038 0.5 14.875 0.5L6.125 0.5ZM4.25 3.625C4.25 3.12772 4.44754 2.65081 4.79917 2.29917C5.15081 1.94754 5.62772 1.75 6.125 1.75H14.875C15.3723 1.75 15.8492 1.94754 16.2008 2.29917C16.5525 2.65081 16.75 3.12772 16.75 3.625V17.1187C16.4501 16.8789 16.1249 16.6727 15.78 16.5037C14.74 15.9838 13.0787 15.5 10.5 15.5C7.92125 15.5 6.26 15.9838 5.22 16.5037C4.87515 16.6727 4.54987 16.8789 4.25 17.1187V3.625Z" fill="url(#paint1_linear_160_2665)"/>
</g>
<defs>
<linearGradient id="paint0_linear_160_2665" x1="10.5" y1="3" x2="10.5" y2="14.25" gradientUnits="userSpaceOnUse">
<stop stop-color="#FFD12E"/>
<stop offset="1" stop-color="#FF7C1D"/>
</linearGradient>
<linearGradient id="paint1_linear_160_2665" x1="10.5" y1="0.5" x2="10.5" y2="20.5" gradientUnits="userSpaceOnUse">
<stop stop-color="#FFD12E"/>
<stop offset="1" stop-color="#FF7C1D"/>
</linearGradient>
<clipPath id="clip0_160_2665">
<rect width="20" height="20" fill="white" transform="translate(0.5 0.5)"/>
</clipPath>
</defs>
</svg>
