<svg width="21" height="21" viewBox="0 0 21 21" fill="none" xmlns="http://www.w3.org/2000/svg">
<g id="Component 5" clip-path="url(#clip0_160_2670)">
<path id="Vector" d="M3 3C3 2.33696 3.26339 1.70107 3.73223 1.23223C4.20107 0.763392 4.83696 0.5 5.5 0.5L15.5 0.5C16.163 0.5 16.7989 0.763392 17.2678 1.23223C17.7366 1.70107 18 2.33696 18 3V18C18 18.663 17.7366 19.2989 17.2678 19.7678C16.7989 20.2366 16.163 20.5 15.5 20.5H5.5C4.83696 20.5 4.20107 20.2366 3.73223 19.7678C3.26339 19.2989 3 18.663 3 18V3ZM8.625 3C8.45924 3 8.30027 3.06585 8.18306 3.18306C8.06585 3.30027 8 3.45924 8 3.625C8 3.79076 8.06585 3.94973 8.18306 4.06694C8.30027 4.18415 8.45924 4.25 8.625 4.25H12.375C12.5408 4.25 12.6997 4.18415 12.8169 4.06694C12.9342 3.94973 13 3.79076 13 3.625C13 3.45924 12.9342 3.30027 12.8169 3.18306C12.6997 3.06585 12.5408 3 12.375 3H8.625ZM10.5 14.25C11.4946 14.25 12.4484 13.8549 13.1517 13.1517C13.8549 12.4484 14.25 11.4946 14.25 10.5C14.25 9.50544 13.8549 8.55161 13.1517 7.84835C12.4484 7.14509 11.4946 6.75 10.5 6.75C9.50544 6.75 8.55161 7.14509 7.84835 7.84835C7.14509 8.55161 6.75 9.50544 6.75 10.5C6.75 11.4946 7.14509 12.4484 7.84835 13.1517C8.55161 13.8549 9.50544 14.25 10.5 14.25ZM16.75 17.6938C15.6825 16.5312 13.7787 15.5 10.5 15.5C7.22125 15.5 5.3175 16.5325 4.25 17.6938V18C4.25 18.3315 4.3817 18.6495 4.61612 18.8839C4.85054 19.1183 5.16848 19.25 5.5 19.25H15.5C15.8315 19.25 16.1495 19.1183 16.3839 18.8839C16.6183 18.6495 16.75 18.3315 16.75 18V17.6938Z" fill="url(#paint0_linear_160_2670)"/>
</g>
<defs>
<linearGradient id="paint0_linear_160_2670" x1="10.5" y1="0.5" x2="10.5" y2="20.5" gradientUnits="userSpaceOnUse">
<stop stop-color="#FFD12E"/>
<stop offset="1" stop-color="#FF7C1D"/>
</linearGradient>
<clipPath id="clip0_160_2670">
<rect width="20" height="20" fill="white" transform="translate(0.5 0.5)"/>
</clipPath>
</defs>
</svg>
