<svg width="21" height="21" viewBox="0 0 21 21" fill="none" xmlns="http://www.w3.org/2000/svg">
<g id="Component 5" clip-path="url(#clip0_160_2674)">
<path id="Vector" fill-rule="evenodd" clip-rule="evenodd" d="M0.5 0.5H1.75V19.25H20.5V20.5H0.5V0.5ZM13 4.875C13 4.70924 13.0658 4.55027 13.1831 4.43306C13.3003 4.31585 13.4592 4.25 13.625 4.25H18.625C18.7908 4.25 18.9497 4.31585 19.0669 4.43306C19.1842 4.55027 19.25 4.70924 19.25 4.875V9.875C19.25 10.0408 19.1842 10.1997 19.0669 10.3169C18.9497 10.4342 18.7908 10.5 18.625 10.5C18.4592 10.5 18.3003 10.4342 18.1831 10.3169C18.0658 10.1997 18 10.0408 18 9.875V6.625L13.4838 12.1463C13.4285 12.2137 13.3597 12.2689 13.2818 12.3082C13.2039 12.3475 13.1186 12.37 13.0315 12.3744C12.9444 12.3787 12.8573 12.3648 12.7759 12.3335C12.6945 12.3022 12.6205 12.2541 12.5588 12.1925L9.325 8.95875L4.755 15.2425C4.65503 15.3696 4.50967 15.453 4.34948 15.4752C4.18929 15.4974 4.02673 15.4567 3.89596 15.3615C3.7652 15.2663 3.67641 15.1242 3.64826 14.9649C3.62011 14.8057 3.65479 14.6417 3.745 14.5075L8.745 7.6325C8.79807 7.55939 8.86636 7.49866 8.94516 7.45448C9.02396 7.41031 9.11141 7.38374 9.20146 7.37661C9.29152 7.36948 9.38205 7.38196 9.46682 7.41319C9.55159 7.44442 9.62859 7.49365 9.6925 7.5575L12.9538 10.82L17.3062 5.5H13.625C13.4592 5.5 13.3003 5.43415 13.1831 5.31694C13.0658 5.19973 13 5.04076 13 4.875Z" fill="url(#paint0_linear_160_2674)"/>
</g>
<defs>
<linearGradient id="paint0_linear_160_2674" x1="10.5" y1="0.5" x2="10.5" y2="20.5" gradientUnits="userSpaceOnUse">
<stop stop-color="#FFD12E"/>
<stop offset="1" stop-color="#FF7C1D"/>
</linearGradient>
<clipPath id="clip0_160_2674">
<rect width="20" height="20" fill="white" transform="translate(0.5 0.5)"/>
</clipPath>
</defs>
</svg>
