<svg width="21" height="21" viewBox="0 0 21 21" fill="none" xmlns="http://www.w3.org/2000/svg">
<g id="Component 5">
<path id="Vector" d="M1.75 4.875C1.75 4.70924 1.81585 4.55027 1.93306 4.43306C2.05027 4.31585 2.20924 4.25 2.375 4.25H18.625C18.7908 4.25 18.9497 4.31585 19.0669 4.43306C19.1842 4.55027 19.25 4.70924 19.25 4.875V6.125C19.25 6.29076 19.1842 6.44973 19.0669 6.56694C18.9497 6.68415 18.7908 6.75 18.625 6.75H2.375C2.20924 6.75 2.05027 6.68415 1.93306 6.56694C1.81585 6.44973 1.75 6.29076 1.75 6.125V4.875ZM1.75 9.875C1.75 9.70924 1.81585 9.55027 1.93306 9.43306C2.05027 9.31585 2.20924 9.25 2.375 9.25H8.625C8.79076 9.25 8.94973 9.31585 9.06694 9.43306C9.18415 9.55027 9.25 9.70924 9.25 9.875V11.125C9.25 11.2908 9.18415 11.4497 9.06694 11.5669C8.94973 11.6842 8.79076 11.75 8.625 11.75H2.375C2.20924 11.75 2.05027 11.6842 1.93306 11.5669C1.81585 11.4497 1.75 11.2908 1.75 11.125V9.875ZM1.75 14.875C1.75 14.7092 1.81585 14.5503 1.93306 14.4331C2.05027 14.3158 2.20924 14.25 2.375 14.25H3.625C3.79076 14.25 3.94973 14.3158 4.06694 14.4331C4.18415 14.5503 4.25 14.7092 4.25 14.875V16.125C4.25 16.2908 4.18415 16.4497 4.06694 16.5669C3.94973 16.6842 3.79076 16.75 3.625 16.75H2.375C2.20924 16.75 2.05027 16.6842 1.93306 16.5669C1.81585 16.4497 1.75 16.2908 1.75 16.125V14.875ZM11.75 14.875C11.75 14.7092 11.8158 14.5503 11.9331 14.4331C12.0503 14.3158 12.2092 14.25 12.375 14.25H13.625C13.7908 14.25 13.9497 14.3158 14.0669 14.4331C14.1842 14.5503 14.25 14.7092 14.25 14.875V16.125C14.25 16.2908 14.1842 16.4497 14.0669 16.5669C13.9497 16.6842 13.7908 16.75 13.625 16.75H12.375C12.2092 16.75 12.0503 16.6842 11.9331 16.5669C11.8158 16.4497 11.75 16.2908 11.75 16.125V14.875ZM6.75 14.875C6.75 14.7092 6.81585 14.5503 6.93306 14.4331C7.05027 14.3158 7.20924 14.25 7.375 14.25H8.625C8.79076 14.25 8.94973 14.3158 9.06694 14.4331C9.18415 14.5503 9.25 14.7092 9.25 14.875V16.125C9.25 16.2908 9.18415 16.4497 9.06694 16.5669C8.94973 16.6842 8.79076 16.75 8.625 16.75H7.375C7.20924 16.75 7.05027 16.6842 6.93306 16.5669C6.81585 16.4497 6.75 16.2908 6.75 16.125V14.875ZM16.75 14.875C16.75 14.7092 16.8158 14.5503 16.9331 14.4331C17.0503 14.3158 17.2092 14.25 17.375 14.25H18.625C18.7908 14.25 18.9497 14.3158 19.0669 14.4331C19.1842 14.5503 19.25 14.7092 19.25 14.875V16.125C19.25 16.2908 19.1842 16.4497 19.0669 16.5669C18.9497 16.6842 18.7908 16.75 18.625 16.75H17.375C17.2092 16.75 17.0503 16.6842 16.9331 16.5669C16.8158 16.4497 16.75 16.2908 16.75 16.125V14.875ZM11.75 9.875C11.75 9.70924 11.8158 9.55027 11.9331 9.43306C12.0503 9.31585 12.2092 9.25 12.375 9.25H18.625C18.7908 9.25 18.9497 9.31585 19.0669 9.43306C19.1842 9.55027 19.25 9.70924 19.25 9.875V11.125C19.25 11.2908 19.1842 11.4497 19.0669 11.5669C18.9497 11.6842 18.7908 11.75 18.625 11.75H12.375C12.2092 11.75 12.0503 11.6842 11.9331 11.5669C11.8158 11.4497 11.75 11.2908 11.75 11.125V9.875Z" fill="url(#paint0_linear_160_2652)"/>
</g>
<defs>
<linearGradient id="paint0_linear_160_2652" x1="10.5" y1="4.25" x2="10.5" y2="16.75" gradientUnits="userSpaceOnUse">
<stop stop-color="#FFD12E"/>
<stop offset="1" stop-color="#FF7C1D"/>
</linearGradient>
</defs>
</svg>
