<svg width="21" height="21" viewBox="0 0 21 21" fill="none" xmlns="http://www.w3.org/2000/svg">
<g id="Component 5" clip-path="url(#clip0_160_2678)">
<path id="Vector" d="M3.8475 15.3675C3.97725 15.4977 4.07667 15.655 4.13868 15.8281C4.20069 16.0011 4.22376 16.1857 4.20625 16.3687C4.11818 17.2157 3.95164 18.0526 3.70875 18.8687C5.4525 18.465 6.5175 17.9975 7.00125 17.7525C7.27563 17.6135 7.59161 17.5806 7.88875 17.66C8.74037 17.8879 9.6184 18.0023 10.5 18C15.495 18 19.25 14.4913 19.25 10.5C19.25 6.50875 15.495 3 10.5 3C5.505 3 1.75 6.51 1.75 10.5C1.75 12.335 2.52125 14.0375 3.8475 15.3675ZM3.23125 20.2487C2.93507 20.3074 2.63795 20.3611 2.34 20.41C2.09 20.45 1.9 20.19 1.99875 19.9575C2.10944 19.6956 2.21117 19.4301 2.30375 19.1612L2.3075 19.1488C2.6175 18.2487 2.87 17.2138 2.9625 16.25C1.42875 14.7125 0.5 12.7 0.5 10.5C0.5 5.6675 4.9775 1.75 10.5 1.75C16.0225 1.75 20.5 5.6675 20.5 10.5C20.5 15.3325 16.0225 19.25 10.5 19.25C9.50951 19.2522 8.52306 19.1236 7.56625 18.8675C6.91625 19.1963 5.5175 19.795 3.23125 20.2487Z" fill="url(#paint0_linear_160_2678)"/>
</g>
<defs>
<linearGradient id="paint0_linear_160_2678" x1="10.5" y1="1.75" x2="10.5" y2="20.4141" gradientUnits="userSpaceOnUse">
<stop stop-color="#FFD12E"/>
<stop offset="1" stop-color="#FF7C1D"/>
</linearGradient>
<clipPath id="clip0_160_2678">
<rect width="20" height="20" fill="white" transform="translate(0.5 0.5)"/>
</clipPath>
</defs>
</svg>
