<svg width="21" height="21" viewBox="0 0 21 21" fill="none" xmlns="http://www.w3.org/2000/svg">
<g id="Component 5" clip-path="url(#clip0_160_2661)">
<path id="Vector" d="M3.64875 4.89375C3.88988 4.33125 4.29087 3.85194 4.80196 3.51528C5.31305 3.17863 5.91175 2.99946 6.52375 3H14.4762C15.7262 3 16.8562 3.745 17.3487 4.89375L18.3387 7.20375C18.4325 7.4225 18.6012 7.6025 18.8137 7.70875C19.4387 8.02125 19.8825 8.6025 20.02 9.28625L20.4387 11.385C20.4804 11.5867 20.5008 11.7908 20.5 11.9975V12.5138C20.5 13.5313 20.0125 14.4425 19.25 15.01V17.375C19.25 17.5408 19.1842 17.6997 19.0669 17.8169C18.9497 17.9342 18.7908 18 18.625 18H16.125C15.9592 18 15.8003 17.9342 15.6831 17.8169C15.5658 17.6997 15.5 17.5408 15.5 17.375V15.7025C13.885 15.7625 12.0688 15.8125 10.5 15.8125C8.93125 15.8125 7.115 15.7625 5.5 15.7025V17.375C5.5 17.5408 5.43415 17.6997 5.31694 17.8169C5.19973 17.9342 5.04076 18 4.875 18H2.375C2.20924 18 2.05027 17.9342 1.93306 17.8169C1.81585 17.6997 1.75 17.5408 1.75 17.375V15.01C0.9875 14.4425 0.5 13.5313 0.5 12.5138V11.9975C0.50021 11.7918 0.520726 11.5867 0.56125 11.385L0.98 9.285C1.1175 8.6025 1.56125 8.02 2.185 7.70875C2.39896 7.60268 2.56789 7.42355 2.66125 7.20375L3.65125 4.89375H3.64875ZM4.24875 13C4.58027 13 4.89821 12.8683 5.13263 12.6339C5.36705 12.3995 5.49875 12.0815 5.49875 11.75C5.49875 11.4185 5.36705 11.1005 5.13263 10.8661C4.89821 10.6317 4.58027 10.5 4.24875 10.5C3.91723 10.5 3.59929 10.6317 3.36487 10.8661C3.13045 11.1005 2.99875 11.4185 2.99875 11.75C2.99875 12.0815 3.13045 12.3995 3.36487 12.6339C3.59929 12.8683 3.91723 13 4.24875 13ZM16.7487 13C17.0803 13 17.3982 12.8683 17.6326 12.6339C17.8671 12.3995 17.9987 12.0815 17.9987 11.75C17.9987 11.4185 17.8671 11.1005 17.6326 10.8661C17.3982 10.6317 17.0803 10.5 16.7487 10.5C16.4172 10.5 16.0993 10.6317 15.8649 10.8661C15.6304 11.1005 15.4987 11.4185 15.4987 11.75C15.4987 12.0815 15.6304 12.3995 15.8649 12.6339C16.0993 12.8683 16.4172 13 16.7487 13ZM7.99875 10.5C7.66723 10.5 7.34929 10.6317 7.11487 10.8661C6.88045 11.1005 6.74875 11.4185 6.74875 11.75C6.74875 12.0815 6.88045 12.3995 7.11487 12.6339C7.34929 12.8683 7.66723 13 7.99875 13H12.9987C13.3303 13 13.6482 12.8683 13.8826 12.6339C14.1171 12.3995 14.2487 12.0815 14.2487 11.75C14.2487 11.4185 14.1171 11.1005 13.8826 10.8661C13.6482 10.6317 13.3303 10.5 12.9987 10.5H7.99875ZM4.13125 6.98625C4.08239 7.08707 4.06096 7.19898 4.06912 7.31072C4.07728 7.42245 4.11475 7.53006 4.17774 7.62271C4.24073 7.71536 4.32702 7.78977 4.42792 7.83845C4.52883 7.88713 4.64078 7.90836 4.7525 7.9C5.89 7.80875 8.94 7.6875 10.4987 7.6875C12.0575 7.6875 15.1087 7.80875 16.245 7.9C16.3567 7.90836 16.4687 7.88713 16.5696 7.83845C16.6705 7.78977 16.7568 7.71536 16.8198 7.62271C16.8828 7.53006 16.9202 7.42245 16.9284 7.31072C16.9365 7.19898 16.9151 7.08707 16.8662 6.98625L15.6712 4.595C15.6193 4.49132 15.5395 4.40413 15.4408 4.34321C15.3422 4.28228 15.2285 4.25001 15.1125 4.25H5.885C5.76903 4.25001 5.65534 4.28228 5.55666 4.34321C5.45799 4.40413 5.37821 4.49132 5.32625 4.595L4.13125 6.98625Z" fill="url(#paint0_linear_160_2661)"/>
</g>
<defs>
<linearGradient id="paint0_linear_160_2661" x1="10.5" y1="3" x2="10.5" y2="18" gradientUnits="userSpaceOnUse">
<stop stop-color="#FFD12E"/>
<stop offset="1" stop-color="#FF7C1D"/>
</linearGradient>
<clipPath id="clip0_160_2661">
<rect width="20" height="20" fill="white" transform="translate(0.5 0.5)"/>
</clipPath>
</defs>
</svg>
