<svg width="21" height="21" viewBox="0 0 21 21" fill="none" xmlns="http://www.w3.org/2000/svg">
<g id="Component 5" clip-path="url(#clip0_160_2656)">
<path id="Vector" fill-rule="evenodd" clip-rule="evenodd" d="M14.0683 6.93362C14.1265 6.99167 14.1727 7.06064 14.2042 7.13657C14.2357 7.21251 14.2519 7.29391 14.2519 7.37612C14.2519 7.45833 14.2357 7.53973 14.2042 7.61566C14.1727 7.69159 14.1265 7.76056 14.0683 7.81862L10.3183 11.5686C10.2602 11.6268 10.1913 11.673 10.1153 11.7045C10.0394 11.736 9.958 11.7522 9.87579 11.7522C9.79358 11.7522 9.71218 11.736 9.63625 11.7045C9.56032 11.673 9.49135 11.6268 9.43329 11.5686L7.55829 9.69362C7.50018 9.63551 7.45408 9.56652 7.42264 9.4906C7.39119 9.41467 7.375 9.3333 7.375 9.25112C7.375 9.16894 7.39119 9.08756 7.42264 9.01164C7.45408 8.93571 7.50018 8.86673 7.55829 8.80862C7.6164 8.75051 7.68539 8.70441 7.76131 8.67296C7.83723 8.64151 7.91861 8.62533 8.00079 8.62533C8.08297 8.62533 8.16435 8.64151 8.24027 8.67296C8.31619 8.70441 8.38518 8.75051 8.44329 8.80862L9.87579 10.2424L13.1833 6.93362C13.2413 6.87541 13.3103 6.82923 13.3862 6.79773C13.4622 6.76622 13.5436 6.75 13.6258 6.75C13.708 6.75 13.7894 6.76622 13.8653 6.79773C13.9413 6.82923 14.0102 6.87541 14.0683 6.93362Z" fill="url(#paint0_linear_160_2656)"/>
<path id="Vector_2" d="M3 3C3 2.33696 3.26339 1.70107 3.73223 1.23223C4.20107 0.763392 4.83696 0.5 5.5 0.5L15.5 0.5C16.163 0.5 16.7989 0.763392 17.2678 1.23223C17.7366 1.70107 18 2.33696 18 3V19.875C17.9999 19.9881 17.9692 20.099 17.9111 20.1959C17.853 20.2929 17.7697 20.3723 17.67 20.4257C17.5703 20.479 17.4581 20.5044 17.3451 20.499C17.2322 20.4936 17.1229 20.4576 17.0287 20.395L10.5 16.8762L3.97125 20.395C3.87713 20.4576 3.76779 20.4936 3.65486 20.499C3.54194 20.5044 3.42967 20.479 3.33 20.4257C3.23033 20.3723 3.14701 20.2929 3.08889 20.1959C3.03078 20.099 3.00006 19.9881 3 19.875V3ZM5.5 1.75C5.16848 1.75 4.85054 1.8817 4.61612 2.11612C4.3817 2.35054 4.25 2.66848 4.25 3V18.7075L10.1537 15.605C10.2563 15.5367 10.3768 15.5003 10.5 15.5003C10.6232 15.5003 10.7437 15.5367 10.8463 15.605L16.75 18.7075V3C16.75 2.66848 16.6183 2.35054 16.3839 2.11612C16.1495 1.8817 15.8315 1.75 15.5 1.75H5.5Z" fill="url(#paint1_linear_160_2656)"/>
</g>
<defs>
<linearGradient id="paint0_linear_160_2656" x1="10.8135" y1="6.75" x2="10.8135" y2="11.7522" gradientUnits="userSpaceOnUse">
<stop stop-color="#FFD12E"/>
<stop offset="1" stop-color="#FF7C1D"/>
</linearGradient>
<linearGradient id="paint1_linear_160_2656" x1="10.5" y1="0.5" x2="10.5" y2="20.4997" gradientUnits="userSpaceOnUse">
<stop stop-color="#FFD12E"/>
<stop offset="1" stop-color="#FF7C1D"/>
</linearGradient>
<clipPath id="clip0_160_2656">
<rect width="20" height="20" fill="white" transform="translate(0.5 0.5)"/>
</clipPath>
</defs>
</svg>
