<svg width="21" height="21" viewBox="0 0 21 21" fill="none" xmlns="http://www.w3.org/2000/svg">
<g id="Component 5" clip-path="url(#clip0_160_2687)">
<path id="Vector" d="M10.4989 6.44531C9.96607 6.44531 9.43845 6.55026 8.94617 6.75417C8.45389 6.95808 8.00659 7.25695 7.62982 7.63373C7.25305 8.0105 6.95417 8.4578 6.75027 8.95007C6.54636 9.44235 6.44141 9.96997 6.44141 10.5028C6.44141 11.0357 6.54636 11.5633 6.75027 12.0556C6.95417 12.5478 7.25305 12.9951 7.62982 13.3719C8.00659 13.7487 8.45389 14.0475 8.94617 14.2515C9.43845 14.4554 9.96607 14.5603 10.4989 14.5603C11.575 14.5603 12.6071 14.1328 13.368 13.3719C14.1289 12.611 14.5564 11.5789 14.5564 10.5028C14.5564 9.4267 14.1289 8.39466 13.368 7.63373C12.6071 6.8728 11.575 6.44531 10.4989 6.44531ZM7.69141 10.5028C7.69141 9.75822 7.9872 9.04412 8.5137 8.51761C9.04021 7.9911 9.75431 7.69531 10.4989 7.69531C11.2435 7.69531 11.9576 7.9911 12.4841 8.51761C13.0106 9.04412 13.3064 9.75822 13.3064 10.5028C13.3064 11.2474 13.0106 11.9615 12.4841 12.488C11.9576 13.0145 11.2435 13.3103 10.4989 13.3103C9.75431 13.3103 9.04021 13.0145 8.5137 12.488C7.9872 11.9615 7.69141 11.2474 7.69141 10.5028Z" fill="url(#paint0_linear_160_2687)"/>
<path id="Vector_2" d="M12.7444 2.17812C12.0856 -0.059375 8.91313 -0.059375 8.25437 2.17812L8.13688 2.57687C8.09087 2.73307 8.0105 2.87698 7.90165 2.99807C7.79279 3.11916 7.65823 3.21436 7.5078 3.27669C7.35738 3.33902 7.19491 3.36689 7.03232 3.35827C6.86972 3.34965 6.71112 3.30476 6.56812 3.22687L6.20312 3.02688C4.15313 1.91188 1.91188 4.15437 3.02813 6.20312L3.22687 6.56812C3.30476 6.71112 3.34965 6.86972 3.35827 7.03232C3.36689 7.19491 3.33902 7.35738 3.27669 7.5078C3.21436 7.65823 3.11916 7.79279 2.99807 7.90165C2.87698 8.0105 2.73307 8.09087 2.57687 8.13688L2.17812 8.25437C-0.059375 8.91313 -0.059375 12.0856 2.17812 12.7444L2.57687 12.8619C2.73307 12.9079 2.87698 12.9883 2.99807 13.0971C3.11916 13.206 3.21436 13.3405 3.27669 13.4909C3.33902 13.6414 3.36689 13.8038 3.35827 13.9664C3.34965 14.129 3.30476 14.2876 3.22687 14.4306L3.02688 14.7956C1.91188 16.8456 4.15313 19.0881 6.20312 17.9706L6.56812 17.7719C6.71112 17.694 6.86972 17.6491 7.03232 17.6405C7.19491 17.6319 7.35738 17.6597 7.5078 17.7221C7.65823 17.7844 7.79279 17.8796 7.90165 18.0007C8.0105 18.1218 8.09087 18.2657 8.13688 18.4219L8.25437 18.8206C8.91313 21.0581 12.0856 21.0581 12.7444 18.8206L12.8619 18.4219C12.9079 18.2657 12.9883 18.1218 13.0971 18.0007C13.206 17.8796 13.3405 17.7844 13.4909 17.7221C13.6414 17.6597 13.8038 17.6319 13.9664 17.6405C14.129 17.6491 14.2876 17.694 14.4306 17.7719L14.7956 17.9719C16.8456 19.0881 19.0881 16.8444 17.9706 14.7956L17.7719 14.4306C17.694 14.2876 17.6491 14.129 17.6405 13.9664C17.6319 13.8038 17.6597 13.6414 17.7221 13.4909C17.7844 13.3405 17.8796 13.206 18.0007 13.0971C18.1218 12.9883 18.2657 12.9079 18.4219 12.8619L18.8206 12.7444C21.0581 12.0856 21.0581 8.91313 18.8206 8.25437L18.4219 8.13688C18.2657 8.09087 18.1218 8.0105 18.0007 7.90165C17.8796 7.79279 17.7844 7.65823 17.7221 7.5078C17.6597 7.35738 17.6319 7.19491 17.6405 7.03232C17.6491 6.86972 17.694 6.71112 17.7719 6.56812L17.9719 6.20312C19.0881 4.15313 16.8444 1.91188 14.7956 3.02813L14.4306 3.22687C14.2876 3.30476 14.129 3.34965 13.9664 3.35827C13.8038 3.36689 13.6414 3.33902 13.4909 3.27669C13.3405 3.21436 13.206 3.11916 13.0971 2.99807C12.9883 2.87698 12.9079 2.73307 12.8619 2.57687L12.7444 2.17812ZM9.45312 2.53187C9.76062 1.48812 11.2381 1.48812 11.5456 2.53187L11.6631 2.93062C11.7619 3.26573 11.9344 3.57448 12.168 3.83425C12.4016 4.09401 12.6904 4.2982 13.0132 4.43185C13.336 4.5655 13.6846 4.62521 14.0335 4.60661C14.3823 4.58802 14.7226 4.49158 15.0294 4.32437L15.3931 4.12437C16.3481 3.60562 17.3931 4.64937 16.8731 5.60562L16.6744 5.97062C16.5074 6.27741 16.4112 6.61766 16.3928 6.96644C16.3744 7.31523 16.4343 7.66371 16.5681 7.98636C16.7018 8.309 16.9061 8.59763 17.1658 8.83109C17.4256 9.06456 17.7343 9.23695 18.0694 9.33562L18.4669 9.45312C19.5106 9.76062 19.5106 11.2381 18.4669 11.5456L18.0681 11.6631C17.733 11.7619 17.4243 11.9344 17.1645 12.168C16.9047 12.4016 16.7005 12.6904 16.5669 13.0132C16.4333 13.336 16.3735 13.6846 16.3921 14.0335C16.4107 14.3823 16.5072 14.7226 16.6744 15.0294L16.8744 15.3931C17.3931 16.3481 16.3494 17.3931 15.3931 16.8731L15.0294 16.6744C14.7225 16.5072 14.3822 16.4108 14.0332 16.3923C13.6843 16.3738 13.3357 16.4336 13.0129 16.5674C12.69 16.7011 12.4013 16.9055 12.1677 17.1654C11.9342 17.4253 11.7618 17.7342 11.6631 18.0694L11.5456 18.4669C11.2381 19.5106 9.76062 19.5106 9.45312 18.4669L9.33562 18.0681C9.23681 17.7332 9.06432 17.4246 8.83079 17.165C8.59726 16.9053 8.30861 16.7012 7.98599 16.5676C7.66336 16.434 7.31493 16.3742 6.96621 16.3927C6.61749 16.4112 6.27733 16.5074 5.97062 16.6744L5.60562 16.8744C4.65062 17.3931 3.60562 16.3494 4.12562 15.3931L4.32437 15.0294C4.49181 14.7226 4.58844 14.3822 4.60716 14.0332C4.62588 13.6842 4.56622 13.3354 4.43255 13.0124C4.29889 12.6895 4.09462 12.4006 3.83472 12.1669C3.57483 11.9332 3.26591 11.7606 2.93062 11.6619L2.53187 11.5444C1.48812 11.2369 1.48812 9.75937 2.53187 9.45187L2.93062 9.33437C3.26538 9.23551 3.5738 9.06305 3.8333 8.82961C4.09281 8.59617 4.29683 8.30766 4.43044 7.98519C4.56405 7.66273 4.62387 7.31447 4.60552 6.9659C4.58717 6.61733 4.49111 6.27728 4.32437 5.97062L4.12437 5.60562C3.60562 4.65062 4.64937 3.60562 5.60562 4.12562L5.97062 4.32437C6.27733 4.49134 6.61749 4.58759 6.96621 4.60607C7.31493 4.62454 7.66336 4.56477 7.98599 4.43115C8.30861 4.29752 8.59726 4.09341 8.83079 3.83378C9.06432 3.57414 9.23681 3.26556 9.33562 2.93062L9.45312 2.53187Z" fill="url(#paint1_linear_160_2687)"/>
</g>
<defs>
<linearGradient id="paint0_linear_160_2687" x1="10.4989" y1="6.44531" x2="10.4989" y2="14.5603" gradientUnits="userSpaceOnUse">
<stop stop-color="#FFD12E"/>
<stop offset="1" stop-color="#FF7C1D"/>
</linearGradient>
<linearGradient id="paint1_linear_160_2687" x1="10.4994" y1="0.5" x2="10.4994" y2="20.4987" gradientUnits="userSpaceOnUse">
<stop stop-color="#FFD12E"/>
<stop offset="1" stop-color="#FF7C1D"/>
</linearGradient>
<clipPath id="clip0_160_2687">
<rect width="20" height="20" fill="white" transform="translate(0.5 0.5)"/>
</clipPath>
</defs>
</svg>
